<svg xmlns="http://www.w3.org/2000/svg" version="1.0" preserveAspectRatio="xMidYMid meet" viewBox="52.19 182 112.58 105.82">

<g transform="translate(0.000000,480.000000) scale(0.100000,-0.100000)" fill="#00913b" stroke="none">
<path d="M995 2966 c-104 -26 -186 -74 -261 -153 -48 -50 -110 -161 -98 -173 5 -5 25 -11 44 -15 33 -6 36 -4 58 38 34 65 115 140 190 179 65 32 71 33 187 33 113 0 123 -2 179 -30 67 -34 157 -112 191 -165 89 -141 87 -342 -5 -475 -58 -84 -171 -160 -267 -180 -39 -8 -41 -1 -45 125 -3 82 -2 85 20 88 13 2 38 19 58 38 l34 35 -2 202 -3 202 -30 0 -30 0 -3 -155 c-3 -158 -6 -170 -44 -170 -16 0 -18 14 -18 149 0 82 -3 156 -6 165 -3 9 -15 16 -26 16 -41 0 -47 -26 -48 -183 l0 -148 -27 3 -28 3 -3 149 c-1 90 -7 155 -14 163 -6 7 -21 13 -34 13 -33 0 -36 -21 -32 -217 3 -159 4 -170 27 -202 13 -18 43 -42 66 -52 47 -21 49 -26 61 -154 l7 -78 -49 7 c-113 15 -233 100 -299 210 -40 69 -43 86 -14 86 11 0 29 5 41 11 26 14 19 40 -32 124 -22 36 -40 69 -40 74 0 13 -35 41 -53 41 -24 0 -129 -182 -125 -218 3 -23 9 -28 41 -32 35 -5 40 -9 61 -60 117 -291 454 -421 731 -283 125 62 220 169 266 298 29 83 35 202 15 289 -67 282 -366 470 -641 402z"/>
</g>
</svg>